<svg width="143" height="32" viewBox="0 0 143 32" fill="none" xmlns="http://www.w3.org/2000/svg">
<path d="M6.59163 14.184C7.39163 14.184 8.06896 14.344 8.62363 14.664C9.18896 14.984 9.69029 15.3573 10.1276 15.784C10.565 16.2107 10.9863 16.584 11.3916 16.904C11.797 17.224 12.245 17.384 12.7356 17.384C13.397 17.384 13.989 17.1227 14.5116 16.6C15.0343 16.0773 15.4983 15.432 15.9036 14.664L17.8236 15.656C17.5143 16.264 17.1356 16.8827 16.6876 17.512C16.2396 18.1307 15.6903 18.6533 15.0396 19.08C14.389 19.496 13.589 19.704 12.6396 19.704C11.893 19.704 11.2423 19.544 10.6876 19.224C10.1436 18.904 9.64763 18.5307 9.19963 18.104C8.76229 17.6773 8.32496 17.304 7.88763 16.984C7.46096 16.664 6.99696 16.504 6.49563 16.504C5.80229 16.504 5.20496 16.7653 4.70363 17.288C4.20229 17.8 3.74363 18.44 3.32763 19.208L1.40763 18.264C1.72763 17.6347 2.10629 17.0053 2.54363 16.376C2.98096 15.7467 3.52496 15.224 4.17563 14.808C4.83696 14.392 5.64229 14.184 6.59163 14.184ZM31.7471 3.096C30.2538 7.192 28.7498 11.2773 27.2351 15.352C25.7418 19.4267 24.2378 23.512 22.7231 27.608H19.7471C21.2618 23.512 22.7658 19.4267 24.2591 15.352C25.7738 11.2773 27.2778 7.192 28.7711 3.096H31.7471ZM32.6944 25.176C32.6944 24.664 32.8757 24.2373 33.2384 23.896C33.6224 23.5333 34.049 23.352 34.5184 23.352C34.945 23.352 35.3397 23.5333 35.7024 23.896C36.0864 24.2373 36.2784 24.664 36.2784 25.176C36.2784 25.7307 36.0864 26.1787 35.7024 26.52C35.3397 26.84 34.945 27 34.5184 27C34.049 27 33.6224 26.84 33.2384 26.52C32.8757 26.1787 32.6944 25.7307 32.6944 25.176ZM45.1406 27.32C43.882 27.32 42.7513 27.032 41.7486 26.456C40.746 25.8587 39.9566 25.016 39.3806 23.928C38.8046 22.84 38.5166 21.5707 38.5166 20.12C38.5166 18.6267 38.826 17.3573 39.4446 16.312C40.0633 15.2453 40.8953 14.4347 41.9406 13.88C43.0073 13.304 44.202 13.016 45.5246 13.016C46.5486 13.016 47.5193 13.2293 48.4366 13.656C49.3753 14.0613 50.1006 14.6373 50.6126 15.384L50.5166 16.504V2.136H53.7806V27H50.4846V23.832L50.8366 24.696C50.1753 25.4427 49.3646 26.072 48.4046 26.584C47.4446 27.0747 46.3566 27.32 45.1406 27.32ZM46.1646 24.536C46.9113 24.536 47.5726 24.408 48.1486 24.152C48.7246 23.896 49.2153 23.5333 49.6206 23.064C50.026 22.5733 50.314 22.008 50.4846 21.368V18.68C50.3353 18.0827 50.0473 17.56 49.6206 17.112C49.2153 16.6427 48.714 16.28 48.1166 16.024C47.5193 15.768 46.8686 15.64 46.1646 15.64C45.3753 15.64 44.65 15.832 43.9886 16.216C43.3486 16.5787 42.826 17.0907 42.4206 17.752C42.0366 18.4133 41.8446 19.1813 41.8446 20.056C41.8446 20.888 42.0366 21.6453 42.4206 22.328C42.826 23.0107 43.3593 23.5547 44.0206 23.96C44.682 24.344 45.3966 24.536 46.1646 24.536ZM57.6729 20.152C57.6729 18.808 57.9929 17.6027 58.6329 16.536C59.2729 15.448 60.1582 14.5947 61.2889 13.976C62.4195 13.3573 63.7102 13.048 65.1609 13.048C66.6329 13.048 67.9235 13.3573 69.0329 13.976C70.1422 14.5947 70.9955 15.448 71.5929 16.536C72.2115 17.6027 72.5209 18.808 72.5209 20.152C72.5209 21.496 72.2115 22.712 71.5929 23.8C70.9955 24.888 70.1422 25.752 69.0329 26.392C67.9235 27.0107 66.6222 27.32 65.1289 27.32C63.6995 27.32 62.4195 27.032 61.2889 26.456C60.1795 25.88 59.2942 25.0587 58.6329 23.992C57.9929 22.904 57.6729 21.624 57.6729 20.152ZM61.0009 20.184C61.0009 21.016 61.1822 21.7733 61.5449 22.456C61.9075 23.1173 62.3982 23.6507 63.0169 24.056C63.6355 24.44 64.3289 24.632 65.0969 24.632C65.8862 24.632 66.5902 24.44 67.2089 24.056C67.8275 23.6507 68.3075 23.1173 68.6489 22.456C69.0115 21.7733 69.1929 21.016 69.1929 20.184C69.1929 19.352 69.0115 18.6053 68.6489 17.944C68.3075 17.2827 67.8275 16.7493 67.2089 16.344C66.5902 15.9387 65.8862 15.736 65.0969 15.736C64.3075 15.736 63.6035 15.9387 62.9849 16.344C62.3662 16.7493 61.8755 17.2933 61.5129 17.976C61.1715 18.6373 61.0009 19.3733 61.0009 20.184ZM77.6986 7.704H80.9946V13.624H84.5786V16.216H80.9946V27H77.6986V16.216H75.3306V13.624H77.6986V7.704ZM89.2574 27V16.504H86.9854V13.592H89.2574V8.152C89.2574 6.232 89.716 4.74933 90.6334 3.704C91.5507 2.65867 92.884 2.136 94.6334 2.136C95.1027 2.136 95.6254 2.21067 96.2014 2.36C96.7774 2.488 97.2894 2.70133 97.7374 3L96.3614 5.4C96.1694 5.18667 95.9454 5.03733 95.6894 4.952C95.4547 4.86667 95.2094 4.824 94.9534 4.824C94.2067 4.824 93.62 5.08 93.1934 5.592C92.7667 6.104 92.5534 6.97867 92.5534 8.216V13.592H96.2974V16.504H92.5534V27H89.2574ZM98.6974 13.592H101.993V27H98.6974V13.592ZM98.5054 8.792C98.5054 8.28 98.708 7.85333 99.1134 7.512C99.54 7.17067 99.988 7 100.457 7C100.927 7 101.353 7.17067 101.737 7.512C102.121 7.85333 102.313 8.28 102.313 8.792C102.313 9.304 102.121 9.73067 101.737 10.072C101.353 10.392 100.927 10.552 100.457 10.552C99.988 10.552 99.54 10.392 99.1134 10.072C98.708 9.73067 98.5054 9.304 98.5054 8.792ZM107.044 2.136H110.34V27H107.044V2.136ZM121.66 27.32C120.103 27.32 118.769 27.0213 117.66 26.424C116.551 25.8053 115.697 24.9627 115.1 23.896C114.503 22.808 114.204 21.5707 114.204 20.184C114.204 18.8613 114.535 17.6667 115.196 16.6C115.879 15.512 116.785 14.648 117.916 14.008C119.068 13.368 120.337 13.048 121.724 13.048C123.516 13.048 124.999 13.5707 126.172 14.616C127.367 15.6613 128.167 17.1227 128.572 19L117.66 22.776L116.892 20.856L125.628 17.72L124.956 18.136C124.7 17.4747 124.295 16.8987 123.74 16.408C123.185 15.896 122.428 15.64 121.468 15.64C120.7 15.64 120.007 15.832 119.388 16.216C118.791 16.5787 118.311 17.0907 117.948 17.752C117.607 18.392 117.436 19.1493 117.436 20.024C117.436 20.92 117.617 21.7093 117.98 22.392C118.364 23.0533 118.876 23.576 119.516 23.96C120.177 24.344 120.913 24.536 121.724 24.536C122.3 24.536 122.844 24.4293 123.356 24.216C123.889 24.0027 124.391 23.736 124.86 23.416L126.364 25.848C125.66 26.296 124.892 26.6587 124.06 26.936C123.249 27.192 122.449 27.32 121.66 27.32ZM136.135 27.288C135.154 27.288 134.204 27.1173 133.287 26.776C132.37 26.4133 131.612 25.8907 131.015 25.208L132.423 23.352C132.999 23.8853 133.575 24.2907 134.151 24.568C134.748 24.824 135.314 24.952 135.847 24.952C136.274 24.952 136.658 24.9093 136.999 24.824C137.34 24.7173 137.618 24.5467 137.831 24.312C138.044 24.0773 138.151 23.768 138.151 23.384C138.151 22.936 138.002 22.584 137.703 22.328C137.404 22.072 137.02 21.8587 136.551 21.688C136.082 21.5173 135.58 21.3573 135.047 21.208C133.916 20.8453 133.063 20.3333 132.487 19.672C131.911 18.9893 131.623 18.1893 131.623 17.272C131.623 16.568 131.794 15.9067 132.135 15.288C132.498 14.648 133.042 14.1253 133.767 13.72C134.492 13.3147 135.388 13.112 136.455 13.112C137.436 13.112 138.3 13.2293 139.047 13.464C139.794 13.6773 140.487 14.0507 141.127 14.584L139.847 16.568C139.463 16.184 139.004 15.896 138.471 15.704C137.959 15.4907 137.49 15.3733 137.063 15.352C136.679 15.352 136.327 15.416 136.007 15.544C135.687 15.6507 135.431 15.8213 135.239 16.056C135.047 16.2693 134.951 16.5253 134.951 16.824C134.93 17.2507 135.068 17.6027 135.367 17.88C135.687 18.136 136.092 18.3493 136.583 18.52C137.074 18.6693 137.554 18.8293 138.023 19C138.684 19.192 139.271 19.4587 139.783 19.8C140.295 20.12 140.7 20.5147 140.999 20.984C141.298 21.4533 141.447 22.0507 141.447 22.776C141.447 23.5653 141.255 24.312 140.871 25.016C140.487 25.6987 139.9 26.2533 139.111 26.68C138.322 27.0853 137.33 27.288 136.135 27.288Z" fill="#58A6FF"/>
</svg>
